<?xml version="1.0" encoding="UTF-8"?>
<svg width="180px" height="180px" viewBox="0 -2 26 26" version="1.1" xmlns="http://www.w3.org/2000/svg" xmlns:xlink="http://www.w3.org/1999/xlink">
    <title>Page 1 Copy</title>
    <desc>Created with Sketch.</desc>
    <defs>
        <polygon id="path-1" points="0 22.1339706 99.7377451 22.1339706 99.7377451 0.000147058824 0 0.000147058824"></polygon>
    </defs>
    <g id="Symbols" stroke="none" stroke-width="1" fill="none" fill-rule="evenodd">
        <mask id="mask-2" fill="white">
            <use xlink:href="#path-1"></use>
        </mask>
        <path d="M12.5879412,14.7308824 L9.26490196,11.0808824 C8.36882353,10.0377451 7.3472549,9.25735294 7.21931373,7.04068627 L7.21931373,0 L12.5879412,5.86813725 L12.5879412,14.7308824 Z"
              id="Fill-9" fill="#EC1C24" mask="url(#mask-2)"></path>
        <path d="M13.4807353,14.7308824 L16.8032843,11.0808824 C17.8258333,10.0377451 18.7214216,9.25735294 18.8498529,7.04068627 L18.8498529,0 L13.4807353,5.86813725 L13.4807353,14.7308824 Z"
              id="Fill-10" fill="#EC1C24" mask="url(#mask-2)"></path>
        <path d="M0,9.61014706 C2.68186275,12.4258333 4.85490196,14.972402 7.15637255,17.3861275 C9.07254902,19.5322059 10.9901961,21.6782843 12.5240196,21.944951 C12.545098,21.947402 12.5661765,21.9503431 12.5877451,21.9557353 L12.5877451,15.8459314 C10.1828431,13.4405392 7.9004902,10.2748529 5.36715686,9.61014706 L0,9.61014706 Z"
              id="Fill-11" fill="#EC1C24" mask="url(#mask-2)"></path>
        <path d="M13.4808824,15.8709314 L13.4808824,21.9596569 C13.5102941,21.9542647 13.5397059,21.9488725 13.5691176,21.9415196 C15.1019608,21.6782843 17.0196078,19.5322059 18.9367647,17.3861275 C21.2377451,14.972402 23.4102941,12.4258333 26.0931373,9.61014706 L20.7254902,9.61014706 C18.1838235,10.2773039 15.895098,13.4621078 13.4808824,15.8709314 Z"
              id="Fill-12" fill="#EC1C24" mask="url(#mask-2)"></path>
    </g>
</svg>
