<?xml version="1.0" encoding="UTF-8"?>
<svg width="200px" height="46px" viewBox="0 0 100 23" version="1.1" xmlns="http://www.w3.org/2000/svg" xmlns:xlink="http://www.w3.org/1999/xlink">
    <title>Page 1 Copy</title>
    <desc>Created with Sketch.</desc>
    <defs>
        <polygon id="path-1" points="0 22.1339706 99.7377451 22.1339706 99.7377451 0.000147058824 0 0.000147058824"></polygon>
    </defs>
    <g id="Symbols" stroke="none" stroke-width="1" fill="none" fill-rule="evenodd">
        <g id="header" transform="translate(-90.000000, -28.000000)">
            <g id="Page-1-Copy">
                <g transform="translate(90.000000, 28.000000)">
                    <path d="M58.81,14.9846078 L58.81,19.6297059 L61.0933333,19.6297059 C62.0967647,19.6297059 62.7286275,19.5821569 63.0016667,19.5243137 C63.8766667,19.3331373 64.5247059,18.3953922 64.4854902,17.5228431 C64.3908824,15.4439216 62.107549,14.9968627 61.1369608,14.9846078 L58.81,14.9846078 Z M58.8055882,9.05715686 L58.8055882,12.8728431 L60.157549,12.8728431 C61.2232353,12.8728431 61.7080392,12.8757843 61.9673529,12.8404902 C62.435,12.7728431 62.9345098,12.4963725 63.2006863,12.1689216 C63.4702941,11.842451 63.6526471,11.4718627 63.6526471,10.9355882 C63.6526471,10.4252941 63.5031373,10.0571569 63.2717647,9.73852941 C63.039902,9.41892157 62.635,9.22627451 62.1810784,9.16156863 C61.9085294,9.12333333 61.2232353,9.05715686 59.9369608,9.05715686 L58.8055882,9.05715686 Z M56.3046078,6.85372549 L62.0967647,6.85372549 C64.2271569,6.89294118 66.1663725,8.13460784 66.1492157,10.4708824 C66.139902,11.8243137 65.8516667,12.9605882 64.2595098,13.7708824 C65.8997059,14.3527451 67.0036275,15.894902 67.1354902,17.5728431 C67.2972549,19.6027451 66.3153922,21.4983333 63.1712745,21.8792157 C62.7560784,21.9341176 62.1266667,21.9645098 60.532549,21.9645098 L56.3178431,21.9645098 L56.3046078,6.85372549 Z"
                          id="Fill-1" fill="#008346"></path>
                    <mask id="mask-2" fill="white">
                        <use xlink:href="#path-1"></use>
                    </mask>
                    <g id="Clip-4"></g>
                    <polygon id="Fill-3" fill="#008346" mask="url(#mask-2)"
                             points="90.1632353 21.9555392 92.8705882 21.9555392 92.8705882 6.85357843 90.1632353 6.85357843"></polygon>
                    <path d="M30.2139706,6.85377451 L32.9669118,6.85377451 C33.6365196,11.6155392 34.7183824,15.8175 36.3365196,19.3003431 C38.2321078,14.6523039 39.2046569,10.562598 39.5458333,6.85377451 L42.2664216,6.85377451 C41.5767157,11.8351471 40.3110294,16.8042647 37.6340686,21.9557353 L34.8801471,21.9557353 C32.3242647,17.2944608 31.0394608,12.1969118 30.2139706,6.85377451"
                          id="Fill-5" fill="#008346" mask="url(#mask-2)"></path>
                    <path d="M51.5805882,12.8022059 C51.3452941,13.1776961 51.0212745,13.4517157 50.6080392,13.6291667 C50.1948039,13.8026961 49.3678431,13.8904412 48.1364706,13.8904412 L46.6948039,13.8904412 L46.6948039,9.12426471 L47.9369608,9.12426471 C49.0629412,9.12426471 49.8114706,9.16151961 50.1869608,9.23602941 C50.6894118,9.3375 51.1109804,9.58504902 51.4389216,9.98014706 C51.7702941,10.3791667 51.9379412,10.885049 51.9379412,11.4943627 C51.9379412,11.992402 51.8168627,12.4257353 51.5805882,12.8022059 M53.7060784,8.53848039 C53.1747059,7.78406863 52.5109804,7.29534314 51.7193137,7.07328431 C51.2070588,6.92230392 50.1026471,6.84583333 48.4114706,6.84583333 L43.9443137,6.84583333 L43.9482353,11.9762255 L43.9482353,21.9556373 L46.6948039,21.9556373 L46.6948039,16.1776961 L48.5418627,16.1776961 C49.8026471,16.1776961 50.712451,16.0551471 51.3756863,15.9051471 C51.8639216,15.7958333 52.3433333,15.5526961 52.8158824,15.1973039 C53.2923529,14.8389706 53.6771569,14.3443627 53.9889216,13.717402 C54.2957843,13.0943627 54.507549,12.3747549 54.507549,11.4541667 C54.507549,10.2644608 54.2403922,9.29093137 53.7060784,8.53848039"
                          id="Fill-6" fill="#008346" mask="url(#mask-2)"></path>
                    <path d="M74.8371078,19.0385294 C74.1929902,19.8140196 71.6488725,21.34 71.3228922,18.9556863 L71.297402,18.1306863 C71.3836765,17.3184314 71.8978922,16.7630392 73.2763235,16.6522549 C73.797402,16.662549 74.3179902,16.6708824 74.8371078,16.6806863 L74.8371078,19.0385294 Z M77.4518137,20.5914706 C77.4518137,18.3164706 77.4567157,16.4306863 77.4567157,14.1576471 C77.3944608,12.735098 76.8728922,11.5297059 75.5121078,11.1762745 C73.6326961,10.694902 71.6204412,11.042451 69.5866176,11.7380392 C69.5341667,11.7591176 69.3032843,11.8537255 69.1042647,11.9522549 L69.2067157,12.192451 L69.2067157,12.2047059 C69.2302451,12.2542157 69.2532843,12.3091176 69.2782843,12.360098 L69.8523039,13.7047059 C70.719951,13.2566667 71.6086765,13.069902 72.5047549,12.9208824 C73.8763235,12.7297059 74.7503431,13.2105882 74.8219118,14.0551961 L74.8219118,15.0659804 C72.3410294,15.1022549 70.7959314,15.4365686 69.6969118,16.2532353 C68.8733824,17.0419608 68.4356373,18.1586275 68.7929902,19.9596078 C68.8576961,20.235098 68.9768137,20.6292157 69.1684804,20.9635294 C69.7204412,21.8145098 70.5689706,22.1581373 71.6356373,22.1326471 C73.0714216,22.0973529 74.090049,21.4836275 74.9547549,20.6571569 C75.0312255,21.0752941 75.1675,21.5365686 75.4219118,21.9522549 L77.5630882,21.9522549 C77.5052451,21.6551961 77.4728922,21.14 77.4518137,20.5914706 L77.4518137,20.5914706 Z"
                          id="Fill-7" fill="#008346" mask="url(#mask-2)"></path>
                    <path d="M85.9191667,10.7729412 C84.7912255,10.7263725 83.7353431,11.0293137 82.7779902,11.5503922 C82.775049,11.5523529 82.7721078,11.5523529 82.7686765,11.5538235 C82.3603431,11.7597059 81.8206373,12.1518627 81.8206373,12.1518627 L81.7392647,10.972451 L79.4240686,10.972451 L79.4240686,21.9484314 L82.107402,21.9484314 L82.107402,13.7185294 C83.1387745,13.117549 85.3015196,11.9807843 85.5088725,13.7881373 L85.5088725,21.974902 L88.2495588,21.974902 L88.2495588,13.4302941 C88.2054412,11.7101961 87.3520098,10.8891176 85.9191667,10.7729412"
                          id="Fill-8" fill="#008346" mask="url(#mask-2)"></path>
                    <path d="M12.5879412,14.7308824 L9.26490196,11.0808824 C8.36882353,10.0377451 7.3472549,9.25735294 7.21931373,7.04068627 L7.21931373,0 L12.5879412,5.86813725 L12.5879412,14.7308824 Z"
                          id="Fill-9" fill="#EC1C24" mask="url(#mask-2)"></path>
                    <path d="M13.4807353,14.7308824 L16.8032843,11.0808824 C17.8258333,10.0377451 18.7214216,9.25735294 18.8498529,7.04068627 L18.8498529,0 L13.4807353,5.86813725 L13.4807353,14.7308824 Z"
                          id="Fill-10" fill="#EC1C24" mask="url(#mask-2)"></path>
                    <path d="M0,9.61014706 C2.68186275,12.4258333 4.85490196,14.972402 7.15637255,17.3861275 C9.07254902,19.5322059 10.9901961,21.6782843 12.5240196,21.944951 C12.545098,21.947402 12.5661765,21.9503431 12.5877451,21.9557353 L12.5877451,15.8459314 C10.1828431,13.4405392 7.9004902,10.2748529 5.36715686,9.61014706 L0,9.61014706 Z"
                          id="Fill-11" fill="#EC1C24" mask="url(#mask-2)"></path>
                    <path d="M13.4808824,15.8709314 L13.4808824,21.9596569 C13.5102941,21.9542647 13.5397059,21.9488725 13.5691176,21.9415196 C15.1019608,21.6782843 17.0196078,19.5322059 18.9367647,17.3861275 C21.2377451,14.972402 23.4102941,12.4258333 26.0931373,9.61014706 L20.7254902,9.61014706 C18.1838235,10.2773039 15.895098,13.4621078 13.4808824,15.8709314 Z"
                          id="Fill-12" fill="#EC1C24" mask="url(#mask-2)"></path>
                    <path d="M96.9785784,21.9555882 L99.737402,21.9555882 L95.7575,15.9972549 C95.2011275,16.6188235 94.6467157,17.2335294 94.1261275,17.6854902 L96.9785784,21.9555882 Z"
                          id="Fill-13" fill="#008346" mask="url(#mask-2)"></path>
                    <path d="M92.8709314,15.0788725 L92.8709314,18.3945588 C92.8866176,18.3911275 92.9027941,18.3886765 92.9189706,18.3852451 C93.7537745,18.2416176 94.7983824,17.0725 95.840049,15.9048529 C97.0939706,14.5906373 98.2768137,13.2038725 99.737598,11.6705392 L96.8155392,11.6705392 C95.4312255,12.0342647 94.1856373,13.7671078 92.8709314,15.0788725 Z"
                          id="Fill-14" fill="#EC1C24" mask="url(#mask-2)"></path>
                </g>
            </g>
        </g>
    </g>
</svg>
